<?xml version="1.0" encoding="UTF-8"?>
<svg width="272px" height="590px" viewBox="0 0 272 590" version="1.1" xmlns="http://www.w3.org/2000/svg" xmlns:xlink="http://www.w3.org/1999/xlink">
    <!-- Generator: Sketch 47.1 (45422) - http://www.bohemiancoding.com/sketch -->
    <title>ics-inventory</title>
    <desc>Created with Sketch.</desc>
    <defs>
        <polygon id="path-1" points="0 11.9884 21.5114472 11.9884 21.5114472 6.66666667e-05 0 6.66666667e-05"></polygon>
        <path d="M15.0881735,8.91379882 C15.0881735,11.3215232 14.4095422,13.6396504 13.1257639,15.6175447 C11.8715566,17.5497651 10.1266313,19.036076 8.07944096,19.9157236 C8.02396145,19.9395375 7.96293012,19.9395375 7.90748916,19.9157236 C5.8602988,19.036076 4.11533494,17.5498058 2.86116627,15.6175447 C1.5773494,13.6396504 0.898718072,11.3215639 0.898718072,8.91379882 L0.898718072,3.29563963 C0.898718072,3.19122498 0.965031325,3.09767923 1.05991325,3.06812561 L7.48501205,1.06739448 C7.65133494,1.01557388 7.8224,0.989724637 7.99346506,0.989724637 C8.16449157,0.989724637 8.33559518,1.01561458 8.50187952,1.06743519 L14.927094,3.06812561 C15.0218988,3.09763852 15.0881735,3.19118428 15.0881735,3.29563963 L15.0881735,8.91379882 Z" id="path-3"></path>
        <path d="M12.557413,8.91379882 C12.557413,10.8179719 12.0121793,12.6440273 10.9806998,14.1944931 C10.2029455,15.3634894 9.17200578,16.3341588 7.99348048,17.008193 C6.81495518,16.3341181 5.78397687,15.3634894 5.00629976,14.1944931 C3.97478169,12.6440273 3.42954795,10.8179719 3.42954795,8.91379882 L3.42954795,5.11619953 L7.99348048,3.69502055 L12.557413,5.11619953 L12.557413,8.91379882 Z" id="path-4"></path>
        <circle id="path-5" cx="15" cy="15" r="15"></circle>
        <filter x="-31.7%" y="-28.3%" width="163.3%" height="163.3%" filterUnits="objectBoundingBox" id="filter-6">
            <feOffset dx="0" dy="1" in="SourceAlpha" result="shadowOffsetOuter1"></feOffset>
            <feGaussianBlur stdDeviation="3" in="shadowOffsetOuter1" result="shadowBlurOuter1"></feGaussianBlur>
            <feColorMatrix values="0 0 0 0 0   0 0 0 0 0   0 0 0 0 0  0 0 0 0.2 0" type="matrix" in="shadowBlurOuter1"></feColorMatrix>
        </filter>
        <circle id="path-7" cx="15" cy="15" r="15"></circle>
        <filter x="-31.7%" y="-28.3%" width="163.3%" height="163.3%" filterUnits="objectBoundingBox" id="filter-8">
            <feOffset dx="0" dy="1" in="SourceAlpha" result="shadowOffsetOuter1"></feOffset>
            <feGaussianBlur stdDeviation="3" in="shadowOffsetOuter1" result="shadowBlurOuter1"></feGaussianBlur>
            <feColorMatrix values="0 0 0 0 0   0 0 0 0 0   0 0 0 0 0  0 0 0 0.2 0" type="matrix" in="shadowBlurOuter1"></feColorMatrix>
        </filter>
    </defs>
    <g id="Page-1" stroke="none" stroke-width="1" fill="none" fill-rule="evenodd">
        <g id="ics-inventory">
            <path d="M109.807115,278.206838 C107.099555,282.087475 106.708323,285.366455 106.708323,285.366455 C106.64826,285.637149 106.407597,285.637149 106.347329,285.366455 C106.347329,285.366455 105.835972,282.087475 103.18868,278.206632 C100.992683,275.138077 100,273.934557 100,271.437834 C100,267.857923 102.857923,265 106.467866,265 C110.047777,265 112.996,267.857923 112.996,271.437834 C112.996,273.934763 111.070492,276.371629 109.807115,278.206838 L109.807115,278.206838 Z M109.024857,271.558372 C109.024857,270.174457 107.941875,269.09168 106.527929,269.09168 C105.204077,269.09168 104.091063,270.174663 104.091063,271.558372 C104.091063,272.94208 105.204077,274.115569 106.527929,274.115569 C107.94208,274.115363 109.024857,272.94208 109.024857,271.558372 L109.024857,271.558372 Z" id="shopping-mall" fill="#F62459"></path>
            <path d="M79.8071146,278.206838 C77.0995545,282.087475 76.7083231,285.366455 76.7083231,285.366455 C76.6482602,285.637149 76.4075974,285.637149 76.3473288,285.366455 C76.3473288,285.366455 75.8359716,282.087475 73.1886801,278.206632 C70.9926829,275.138077 70,273.934557 70,271.437834 C70,267.857923 72.8579229,265 76.4678659,265 C80.0477775,265 82.9960004,267.857923 82.9960004,271.437834 C82.9960004,273.934763 81.0704918,276.371629 79.8071146,278.206838 L79.8071146,278.206838 Z M79.0248575,271.558372 C79.0248575,270.174457 77.9418746,269.09168 76.5279288,269.09168 C75.2040773,269.09168 74.091063,270.174663 74.091063,271.558372 C74.091063,272.94208 75.2040773,274.115569 76.5279288,274.115569 C77.9420803,274.115363 79.0248575,272.94208 79.0248575,271.558372 L79.0248575,271.558372 Z" id="hospital" fill="#26C281"></path>
            <path d="M49.8071146,278.206838 C47.0995545,282.087475 46.7083231,285.366455 46.7083231,285.366455 C46.6482602,285.637149 46.4075974,285.637149 46.3473288,285.366455 C46.3473288,285.366455 45.8359716,282.087475 43.1886801,278.206632 C40.9926829,275.138077 40,273.934557 40,271.437834 C40,267.857923 42.8579229,265 46.4678659,265 C50.0477775,265 52.9960004,267.857923 52.9960004,271.437834 C52.9960004,273.934763 51.0704918,276.371629 49.8071146,278.206838 L49.8071146,278.206838 Z M49.0248575,271.558372 C49.0248575,270.174457 47.9418746,269.09168 46.5279288,269.09168 C45.2040773,269.09168 44.091063,270.174663 44.091063,271.558372 C44.091063,272.94208 45.2040773,274.115569 46.5279288,274.115569 C47.9420803,274.115363 49.0248575,272.94208 49.0248575,271.558372 L49.0248575,271.558372 Z" id="school" fill="#4CAFCE"></path>
            <path d="M109.807115,238.206838 C107.099555,242.087475 106.708323,245.366455 106.708323,245.366455 C106.64826,245.637149 106.407597,245.637149 106.347329,245.366455 C106.347329,245.366455 105.835972,242.087475 103.18868,238.206632 C100.992683,235.138077 100,233.934557 100,231.437834 C100,227.857923 102.857923,225 106.467866,225 C110.047777,225 112.996,227.857923 112.996,231.437834 C112.996,233.934763 111.070492,236.371629 109.807115,238.206838 L109.807115,238.206838 Z M109.024857,231.558372 C109.024857,230.174457 107.941875,229.09168 106.527929,229.09168 C105.204077,229.09168 104.091063,230.174663 104.091063,231.558372 C104.091063,232.94208 105.204077,234.115569 106.527929,234.115569 C107.94208,234.115363 109.024857,232.94208 109.024857,231.558372 L109.024857,231.558372 Z" id="metro" fill="#829CDD"></path>
            <path d="M79.8071146,238.206838 C77.0995545,242.087475 76.7083231,245.366455 76.7083231,245.366455 C76.6482602,245.637149 76.4075974,245.637149 76.3473288,245.366455 C76.3473288,245.366455 75.8359716,242.087475 73.1886801,238.206632 C70.9926829,235.138077 70,233.934557 70,231.437834 C70,227.857923 72.8579229,225 76.4678659,225 C80.0477775,225 82.9960004,227.857923 82.9960004,231.437834 C82.9960004,233.934763 81.0704918,236.371629 79.8071146,238.206838 L79.8071146,238.206838 Z M79.0248575,231.558372 C79.0248575,230.174457 77.9418746,229.09168 76.5279288,229.09168 C75.2040773,229.09168 74.091063,230.174663 74.091063,231.558372 C74.091063,232.94208 75.2040773,234.115569 76.5279288,234.115569 C77.9420803,234.115363 79.0248575,232.94208 79.0248575,231.558372 L79.0248575,231.558372 Z" id="atm" fill="#FB8C20"></path>
            <path d="M49.8071146,238.206838 C47.0995545,242.087475 46.7083231,245.366455 46.7083231,245.366455 C46.6482602,245.637149 46.4075974,245.637149 46.3473288,245.366455 C46.3473288,245.366455 45.8359716,242.087475 43.1886801,238.206632 C40.9926829,235.138077 40,233.934557 40,231.437834 C40,227.857923 42.8579229,225 46.4678659,225 C50.0477775,225 52.9960004,227.857923 52.9960004,231.437834 C52.9960004,233.934763 51.0704918,236.371629 49.8071146,238.206838 L49.8071146,238.206838 Z M49.0248575,231.558372 C49.0248575,230.174457 47.9418746,229.09168 46.5279288,229.09168 C45.2040773,229.09168 44.091063,230.174663 44.091063,231.558372 C44.091063,232.94208 45.2040773,234.115569 46.5279288,234.115569 C47.9420803,234.115363 49.0248575,232.94208 49.0248575,231.558372 L49.0248575,231.558372 Z" id="bus-stop" fill="#FCB300"></path>
            <g id="Group-6" transform="translate(40.000000, 326.000000)" fill="#FFFFFF">
                <circle id="Oval" stroke="#FFFFFF" fill-opacity="0" cx="7" cy="7" r="7"></circle>
                <path d="M10.821268,4.10334579 C10.6835634,3.9655514 10.4577063,3.9655514 10.3199119,4.10334579 L5.87305796,8.55046904 C5.73526357,8.68826343 5.50949621,8.68826343 5.37170182,8.55046904 L4.27643838,7.45529537 C4.13864399,7.31750098 3.91287663,7.31750098 3.77508223,7.45529537 L3.10334579,8.12739088 C2.9655514,8.26518528 2.9655514,8.49095263 3.10334579,8.62874703 L5.37170182,10.8966542 C5.50949621,11.0344486 5.73526357,11.0344486 5.87305796,10.8966542 L11.4930045,5.27643838 C11.6308886,5.13855422 11.6308886,4.91287663 11.4930045,4.77499247 L10.821268,4.10334579 Z" id="Shape" fill-rule="nonzero"></path>
            </g>
            <g id="lift" transform="translate(208.000000, 436.000000)" fill="#FFFFFF">
                <g id="Page-1" transform="translate(0.000000, 0.583073)">
                    <g id="Group-2">
                        <path d="M15.3172376,16.3476813 L12.4807244,16.3476813 L12.4807244,3.68969186 C12.4807244,3.52091867 12.3672746,3.40841419 12.1970831,3.40841419 L7.0913062,3.40841419 L1.98556255,3.40841419 C1.81537109,3.40841419 1.7019212,3.52091867 1.7019212,3.68969186 L1.7019212,16.3476813 L0.567289339,16.3476813 L0.567289339,0.595538627 L15.3172044,0.595538627 L15.3172044,16.3476813 L15.3172376,16.3476813 Z M7.37494755,16.3476813 L7.37494755,3.97100249 L11.9133753,3.97100249 L11.9133753,16.3477143 L7.37494755,16.3477143 L7.37494755,16.3476813 Z M6.80766486,16.3476813 L2.26920389,16.3476813 L2.26920389,3.97100249 L6.80763162,3.97100249 L6.80763162,16.3476813 L6.80766486,16.3476813 Z M15.600879,0.0329503289 L0.283647993,0.0329503289 C0.113456538,0.0329503289 6.64810386e-06,0.145454803 6.64810386e-06,0.31426096 L6.64810386e-06,16.628959 C6.64810386e-06,16.7977322 0.113456538,16.9102367 0.283647993,16.9102367 L1.98556255,16.9102367 L7.0913062,16.9102367 L12.1970499,16.9102367 L15.600879,16.9102367 C15.7710372,16.9102367 15.8844871,16.7977322 15.8844871,16.628959 L15.8844871,0.31426096 C15.8844871,0.145454803 15.7710372,0.0329503289 15.600879,0.0329503289 L15.600879,0.0329503289 Z" id="Fill-1"></path>
                        <path d="M5.67302302,1.72070204 L8.5095362,1.72070204 C8.67972765,1.72070204 8.79317754,1.83320651 8.79317754,2.00197971 C8.79317754,2.1707529 8.67972765,2.28325737 8.5095362,2.28325737 L5.67302302,2.28325737 C5.50283157,2.28325737 5.38938168,2.1707529 5.38938168,2.00197971 C5.38938168,1.83320651 5.50283157,1.72070204 5.67302302,1.72070204 M5.67302302,2.84584567 L8.5095362,2.84584567 C8.9917564,2.84584567 9.36049347,2.48018141 9.36049347,2.00197971 C9.36049347,1.523778 8.9917564,1.15811374 8.5095362,1.15811374 L5.67302302,1.15811374 C5.19080282,1.15811374 4.82206575,1.523778 4.82206575,2.00197971 C4.82206575,2.48018141 5.19083606,2.84584567 5.67302302,2.84584567" id="Fill-4"></path>
                        <path d="M13.530234,9.5123868 L13.8989711,9.14672254 L14.2677081,9.5123868 C14.3244497,9.56865552 14.381158,9.5967734 14.4662205,9.5967734 C14.5513495,9.5967734 14.608091,9.56865552 14.6647994,9.5123868 C14.7782493,9.39988233 14.7782493,9.23110913 14.6647994,9.11857169 L14.0974502,8.55595043 C13.9840003,8.44347892 13.8138089,8.44347892 13.7003257,8.55595043 L13.133043,9.11857169 C13.0195931,9.23107617 13.0195931,9.39984936 13.133043,9.5123868 C13.2465594,9.62492424 13.4167509,9.62492424 13.530234,9.5123868" id="Fill-6"></path>
                        <path d="M13.7003955,11.7626971 C13.7571371,11.8189659 13.8138454,11.8471167 13.8989744,11.8471167 C13.9840369,11.8471167 14.0407784,11.8189659 14.0974868,11.7626971 L14.6648359,11.2001418 C14.7782858,11.0876373 14.7782858,10.9188312 14.6648359,10.8062937 C14.551386,10.6937893 14.3811613,10.6937893 14.2676782,10.8062937 L13.8989744,11.171991 L13.5302373,10.8063267 C13.4167874,10.6938222 13.246596,10.6938222 13.1331128,10.8063267 C13.0196629,10.9188312 13.0196629,11.0876373 13.1331128,11.2001748 L13.7003955,11.7626971 Z" id="Fill-8"></path>
                    </g>
                </g>
            </g>
            <g id="gym" transform="translate(208.000000, 385.000000)">
                <g id="Page-1">
                    <mask id="mask-2" fill="white">
                        <use xlink:href="#path-1"></use>
                    </mask>
                    <g id="Clip-2"></g>
                    <path d="M20.8388889,6.96966667 C20.8388889,7.161 20.7757,7.34533333 20.6661278,7.47666667 C20.5693278,7.59166667 20.445975,7.65533333 20.3192611,7.65533333 L19.8305556,7.65533333 L19.8305556,4.32166667 L20.3192611,4.32166667 C20.445975,4.32166667 20.5693278,4.385 20.6661278,4.50033333 C20.7760361,4.631 20.8388889,4.81566667 20.8388889,5.007 L20.8388889,6.96966667 Z M19.1583333,8.713 C19.1583333,9.04866667 18.8444056,9.322 18.4582139,9.322 L17.8138889,9.322 L17.8138889,2.655 L18.4582139,2.655 C18.8440694,2.655 19.1583333,2.928 19.1583333,3.26366667 L19.1583333,3.98833333 L19.1583333,7.98866667 L19.1583333,8.713 Z M17.1416667,10.711 C17.1416667,10.8703333 17.0741083,11.0213333 16.9517639,11.136 C16.6996806,11.372 16.2395444,11.372 15.9874611,11.136 C15.8647806,11.0213333 15.7972222,10.87 15.7972222,10.711 L15.7972222,6.98866667 L15.7972222,4.98833333 L15.7972222,1.26633333 C15.7972222,1.10666667 15.8647806,0.955666667 15.987125,0.841 C16.1131667,0.723 16.2889528,0.655333333 16.4694444,0.655333333 C16.6499361,0.655333333 16.8257222,0.723 16.9517639,0.841 C17.0741083,0.955333333 17.1416667,1.10666667 17.1416667,1.26633333 L17.1416667,2.322 L17.1416667,9.65566667 L17.1416667,10.711 Z M6.38611111,6.655 L15.125,6.655 L15.125,5.32166667 L6.38611111,5.32166667 L6.38611111,6.655 Z M5.71388889,10.711 C5.71388889,10.8703333 5.64633056,11.0213333 5.52398611,11.136 C5.27190278,11.372 4.81176667,11.372 4.55968333,11.136 C4.43700278,11.0213333 4.36944444,10.87 4.36944444,10.711 L4.36944444,9.65533333 L4.36944444,2.32166667 L4.36944444,1.266 C4.36944444,1.10633333 4.43700278,0.955333333 4.55934722,0.840666667 C4.68538889,0.722666667 4.861175,0.655 5.04166667,0.655 C5.22215833,0.655 5.39794444,0.722666667 5.52398611,0.840666667 C5.64633056,0.955333333 5.71388889,1.10666667 5.71388889,1.26633333 L5.71388889,4.98866667 L5.71388889,6.989 L5.71388889,10.711 Z M2.97458333,9.322 C2.80551944,9.322 2.64116111,9.26066667 2.52453056,9.155 C2.41361389,9.05366667 2.35277778,8.92233333 2.35277778,8.78433333 L2.35277778,7.98866667 L2.35277778,3.98833333 L2.35277778,3.19233333 C2.35277778,3.05433333 2.41361389,2.92266667 2.52385833,2.82233333 C2.64149722,2.716 2.80551944,2.655 2.97458333,2.655 L3.69722222,2.655 L3.69722222,9.322 L2.97458333,9.322 Z M1.19655556,7.65533333 C1.06849722,7.65533333 0.944136111,7.591 0.846663889,7.47533333 C0.735747222,7.34333333 0.672222222,7.157 0.672222222,6.96433333 L0.672222222,5.01233333 C0.672222222,4.81966667 0.735747222,4.63366667 0.846663889,4.50166667 C0.944136111,4.38566667 1.06849722,4.32166667 1.19655556,4.32166667 L1.68055556,4.32166667 L1.68055556,7.65533333 L1.19655556,7.65533333 Z M21.1823944,4.07333333 C20.9588806,3.80733333 20.6442806,3.655 20.3192611,3.655 L19.8305556,3.655 L19.8305556,3.26366667 C19.8305556,2.56066667 19.2148,1.98833333 18.4582139,1.98833333 L17.8138889,1.98833333 L17.8138889,1.266 C17.8138889,0.926 17.6676806,0.594333333 17.4132444,0.355666667 C16.9070611,-0.118666667 16.0321639,-0.118666667 15.5259806,0.355666667 C15.2712083,0.594666667 15.125,0.926333333 15.125,1.26633333 L15.125,4.65533333 L6.38611111,4.65533333 L6.38611111,1.26633333 C6.38611111,0.926333333 6.24023889,0.594666667 5.98546667,0.356 C5.47928333,-0.118333333 4.60438611,-0.118333333 4.09820278,0.356 C3.84343056,0.594666667 3.69722222,0.926333333 3.69722222,1.26633333 L3.69722222,1.98866667 L2.97458333,1.98866667 C2.634775,1.98866667 2.31345278,2.11033333 2.06943611,2.33133333 C1.82239444,2.55633333 1.68055556,2.87033333 1.68055556,3.19233333 L1.68055556,3.655 L1.19655556,3.655 C0.869855556,3.655 0.553911111,3.808 0.329725,4.075 C0.117302778,4.32833333 0,4.66133333 0,5.01233333 L0,6.96433333 C0,7.31533333 0.117302778,7.64833333 0.330061111,7.90166667 C0.554247222,8.169 0.870191667,8.322 1.19655556,8.322 L1.68055556,8.322 L1.68055556,8.78433333 C1.68055556,9.10633333 1.82239444,9.42066667 2.07010833,9.646 C2.31345278,9.86666667 2.634775,9.98866667 2.97458333,9.98866667 L3.69722222,9.98866667 L3.69722222,10.711 C3.69722222,11.0506667 3.84343056,11.3823333 4.09786667,11.6206667 C4.35095833,11.8576667 4.68606111,11.9886667 5.04166667,11.9886667 C5.39727222,11.9886667 5.732375,11.8576667 5.98546667,11.6206667 C6.24023889,11.382 6.38611111,11.0503333 6.38611111,10.711 L6.38611111,7.322 L15.125,7.322 L15.125,10.711 C15.125,11.0506667 15.2712083,11.3823333 15.5256444,11.6206667 C15.7787361,11.8576667 16.1138389,11.9886667 16.4694444,11.9886667 C16.82505,11.9886667 17.1601528,11.8576667 17.4132444,11.6206667 C17.6676806,11.382 17.8138889,11.0503333 17.8138889,10.711 L17.8138889,9.98866667 L18.4582139,9.98866667 C19.2148,9.98866667 19.8305556,9.41633333 19.8305556,8.713 L19.8305556,8.322 L20.3192611,8.322 C20.6442806,8.322 20.9588806,8.16933333 21.1827306,7.90333333 C21.3944806,7.651 21.5114472,7.31966667 21.5114472,6.97 L21.5114472,5.007 C21.5111111,4.65733333 21.3944806,4.32566667 21.1823944,4.07333333 L21.1823944,4.07333333 Z" id="Fill-1" fill="#FFFFFF" mask="url(#mask-2)"></path>
                </g>
            </g>
            <g id="power-backup" transform="translate(44.000000, 433.000000)" fill="#FFFFFF">
                <g id="Page-1">
                    <path d="M4.28789441,16.2214276 L10.6780943,16.2234817 C10.8032873,15.4518283 11.1065624,14.4754506 11.8215685,13.7147523 C13.406231,12.3590525 14.2993191,10.4090358 14.2993191,8.33851245 C14.2986497,4.49599358 11.2417976,1.36966763 7.48399858,1.36966763 C3.72619953,1.36966763 0.670016976,4.49599358 0.670016976,8.33919715 C0.670016976,10.4076664 1.56243567,12.3569984 3.11964939,13.6880492 C3.13973383,13.7044819 3.15780983,13.7250228 3.1732079,13.7462484 C3.8674601,14.501469 4.16404036,15.4607294 4.28789441,16.2214276 M10.9686492,16.9081786 L10.9686492,16.9081786 L3.99733949,16.9061245 C3.8279607,16.9061245 3.68469168,16.7767168 3.66460724,16.6041732 C3.58359999,15.9037282 3.34459513,14.9163954 2.66105463,14.1892473 C2.66038515,14.1878779 2.65971567,14.1871932 2.65837671,14.1858238 C0.968605677,12.7267347 -0.000133896278,10.5980121 -0.000133896278,8.33919715 C0.000535585113,4.1187256 3.35798476,0.684970756 7.48399858,0.684970756 C11.6100124,0.684970756 14.968131,4.1187256 14.968131,8.33919715 C14.968131,10.6130755 13.9866713,12.7548073 12.2768159,14.2138964 C11.6213936,14.91708 11.3817192,15.9057823 11.300712,16.6062272 C11.2819665,16.7780862 11.1386975,16.9081786 10.9686492,16.9081786" id="Fill-1"></path>
                    <path d="M10.9687162,18.9782911 L3.99740644,18.9782911 C3.81262957,18.9782911 3.66266574,18.824919 3.66266574,18.6359427 C3.66266574,18.447651 3.81262957,18.2935942 3.99740644,18.2935942 L10.9687162,18.2935942 C11.153493,18.2935942 11.3034569,18.447651 11.3034569,18.6359427 C11.3034569,18.824919 11.1541625,18.9782911 10.9687162,18.9782911" id="Fill-4"></path>
                    <path d="M10.9687162,21.0503893 L3.99740644,21.0503893 C3.81262957,21.0503893 3.66266574,20.8963325 3.66266574,20.7080408 C3.66266574,20.5190645 3.81262957,20.3656924 3.99740644,20.3656924 L10.9687162,20.3656924 C11.153493,20.3656924 11.3034569,20.5190645 11.3034569,20.7080408 C11.3034569,20.8963325 11.1541625,21.0503893 10.9687162,21.0503893" id="Fill-6"></path>
                    <g id="Group-10" transform="translate(5.355851, 22.438201)">
                        <path d="M3.58741603,0.685039226 L0.668477169,0.685039226 C0.483700305,0.685039226 0.333736473,0.530982428 0.333736473,0.342690787 C0.333736473,0.153714449 0.483700305,0.000342348439 0.668477169,0.000342348439 L3.58741603,0.000342348439 C3.77152342,0.000342348439 3.92215673,0.153714449 3.92215673,0.342690787 C3.92215673,0.530982428 3.77152342,0.685039226 3.58741603,0.685039226" id="Fill-8"></path>
                    </g>
                </g>
            </g>
            <g id="security" transform="translate(95.000000, 435.000000)">
                <g id="Page-1">
                    <g id="Fill-1">
                        <use fill-opacity="0" fill="#FFFFFF" fill-rule="evenodd" xlink:href="#path-3"></use>
                        <path stroke="#FFFFFF" stroke-width="0.6" d="M14.7881735,3.33907572 L8.41262184,1.35384934 C8.27582877,1.31121935 8.13484444,1.28972464 7.99346506,1.28972464 C7.85198441,1.28972464 7.71103529,1.31119709 7.57420564,1.35382859 L1.19871807,3.33911114 L1.19871807,8.91379882 C1.19871807,11.2638607 1.86070318,13.5251779 3.11280648,15.4542131 C4.32831012,17.3269042 6.01533096,18.7683638 7.9934649,19.6260807 C9.97155462,18.7683743 11.6585521,17.3269118 12.8741231,15.4542139 C14.1261886,13.525179 14.7881735,11.2638194 14.7881735,8.91379882 L14.7881735,3.33907572 Z"></path>
                    </g>
                    <g id="Fill-4">
                        <use fill-opacity="0" fill="#FFFFFF" fill-rule="evenodd" xlink:href="#path-4"></use>
                        <path stroke="#FFFFFF" stroke-width="0.6" d="M12.257413,5.3369899 L7.99348048,4.00922898 L3.72954795,5.3369899 L3.72954795,8.91379882 C3.72954795,10.7591943 4.25750739,12.5273852 5.25607781,14.0283278 C5.97484959,15.1087781 6.91730489,16.0140875 7.99348445,16.6604663 C9.06957739,16.0141682 10.0120283,15.1088539 10.7309239,14.0283246 C11.7294617,12.5273748 12.257413,10.7591791 12.257413,8.91379882 L12.257413,5.3369899 Z"></path>
                    </g>
                </g>
            </g>
            <g id="parking" transform="translate(152.000000, 435.000000)" fill="#FFFFFF">
                <g id="Page-1" transform="translate(0.803605, 0.000000)">
                    <path d="M13.8813374,16.1948805 C13.8813374,16.3931823 13.7491493,16.5253703 13.5508082,16.5253703 L13.2203577,16.5253703 L11.2373005,16.5253703 L3.30507171,16.5253703 L1.32205388,16.5253703 L0.991524662,16.5253703 C0.79322288,16.5253703 0.661034817,16.3931823 0.661034817,16.1948805 L0.661034817,12.5592953 C0.661034817,12.3609935 0.79322288,12.2287661 0.991524662,12.2287661 L1.15678927,12.2287661 C1.58643001,12.2287661 1.98303357,11.9313528 2.11522164,11.5016333 L3.27203453,7.50248174 C3.43729914,7.17203127 3.76778899,6.94065294 4.16435318,6.94065294 L10.3779009,6.94065294 C10.7415067,6.94065294 11.1050337,7.13895473 11.2702589,7.50248174 L12.4270324,11.5016333 C12.5592599,11.9313134 12.9559028,12.2287661 13.3855042,12.2287661 L13.5507688,12.2287661 C13.74911,12.2287661 13.881298,12.3609935 13.881298,12.5592953 L13.881298,16.1948805 L13.8813374,16.1948805 Z M12.8897497,18.838878 C12.8897497,19.0372192 12.757601,19.1694072 12.5592993,19.1694072 L11.8982802,19.1694072 C11.6999784,19.1694072 11.5677903,19.0372192 11.5677903,18.838878 L11.5677903,17.1863894 L12.8897891,17.1863894 L12.8897891,18.838878 L12.8897497,18.838878 Z M2.97458186,18.838878 C2.97458186,19.0372192 2.8423938,19.1694072 2.64409202,19.1694072 L1.98303357,19.1694072 C1.78477117,19.1694072 1.65254373,19.0372192 1.65254373,18.838878 L1.65254373,17.1863894 L2.97462124,17.1863894 L2.97462124,18.838878 L2.97458186,18.838878 Z M14.5422777,16.1948805 L14.5422777,12.5592953 C14.5422777,11.9973878 14.1126763,11.5677864 13.5507688,11.5677864 L13.3855042,11.5677864 C13.2202789,11.5677864 13.0880515,11.4686355 13.0550537,11.3364475 L11.8982802,7.30425871 L11.8982802,7.27122154 C11.6338647,6.6763162 11.03892,6.27971263 10.3779009,6.27971263 L4.16435318,6.27971263 C3.50337349,6.27971263 2.90842876,6.6763162 2.64405264,7.27122154 L2.64405264,7.30425871 L1.48727912,11.3364475 C1.42112602,11.4686355 1.28893796,11.5677864 1.15678927,11.5677864 L0.991524662,11.5677864 C0.429656487,11.5677864 1.5750737e-05,11.9973878 1.5750737e-05,12.5592953 L1.5750737e-05,16.1948805 C1.5750737e-05,16.7567487 0.429656487,17.1863894 0.991524662,17.1863894 L0.991524662,18.838878 C0.991524662,19.4007856 1.42112602,19.8304263 1.9829942,19.8304263 L2.64405264,19.8304263 C3.20592081,19.8304263 3.63556155,19.4007856 3.63556155,18.838878 L3.63556155,17.1863894 L10.9067319,17.1863894 L10.9067319,18.838878 C10.9067319,19.4007856 11.3363333,19.8304263 11.8982408,19.8304263 L12.5592599,19.8304263 C13.1210887,19.8304263 13.5507294,19.4007856 13.5507294,18.838878 L13.5507294,17.1863894 C14.1126763,17.1863894 14.5422777,16.7567487 14.5422777,16.1948805 L14.5422777,16.1948805 Z" id="Fill-1"></path>
                    <path d="M2.97456611,14.8728345 C2.61099972,14.8728345 2.31354704,14.5753818 2.31354704,14.2118154 C2.31354704,13.8482097 2.61099972,13.5507964 2.97456611,13.5507964 C3.3381325,13.5507964 3.63558518,13.8482097 3.63558518,14.2118154 C3.63558518,14.5753818 3.3381325,14.8728345 2.97456611,14.8728345 M2.97456611,12.8897773 C2.24743332,12.8897773 1.65252798,13.4846826 1.65252798,14.2118154 C1.65252798,14.9389482 2.24743332,15.5338536 2.97456611,15.5338536 C3.7016989,15.5338536 4.29660424,14.9389482 4.29660424,14.2118154 C4.29660424,13.4846826 3.7016989,12.8897773 2.97456611,12.8897773" id="Fill-4"></path>
                    <path d="M11.5677943,14.8728345 C11.2042279,14.8728345 10.9067752,14.5753818 10.9067752,14.2118154 C10.9067752,13.8482097 11.2042279,13.5507964 11.5677943,13.5507964 C11.9313213,13.5507964 12.228774,13.8482097 12.228774,14.2118154 C12.228774,14.5753818 11.9312819,14.8728345 11.5677943,14.8728345 M11.5677943,12.8897773 C10.8406221,12.8897773 10.2457562,13.4846826 10.2457562,14.2118154 C10.2457562,14.9389482 10.8406221,15.5338536 11.5677943,15.5338536 C12.2949271,15.5338536 12.889793,14.9389482 12.889793,14.2118154 C12.889793,13.4846826 12.2948877,12.8897773 11.5677943,12.8897773" id="Fill-6"></path>
                    <path d="M7.93218548,14.5422856 L6.61014735,14.5422856 C6.41184557,14.5422856 6.2796575,14.6744736 6.2796575,14.8728148 C6.2796575,15.0711166 6.41184557,15.2032653 6.61014735,15.2032653 L7.93218548,15.2032653 C8.13048726,15.2032653 8.26267533,15.0711166 8.26267533,14.8728148 C8.26267533,14.674513 8.13048726,14.5422856 7.93218548,14.5422856" id="Fill-8"></path>
                    <path d="M5.94909284,13.2203144 C5.75079106,13.2203144 5.618603,13.3524631 5.618603,13.5508042 C5.618603,13.749106 5.75079106,13.8812941 5.94909284,13.8812941 L8.59316911,13.8812941 C8.79147089,13.8812941 8.92365895,13.749106 8.92365895,13.5508042 C8.92369833,13.3524631 8.79151027,13.2203144 8.59316911,13.2203144 L5.94909284,13.2203144 Z" id="Fill-10"></path>
                    <path d="M4.89151353,8.26267533 L9.68387223,8.26267533 L10.4770794,10.9067516 L4.0983064,10.9067516 L4.89151353,8.26267533 Z M4.0983064,11.56781 L10.4770794,11.56781 C10.6753811,11.56781 10.8736435,11.4686198 11.0059104,11.3033552 C11.1381378,11.1380905 11.171175,10.9067516 11.1050219,10.7084498 L10.3118147,8.06437354 C10.245701,7.79995804 9.98128552,7.60165626 9.68383285,7.60165626 L4.89151353,7.60165626 C4.59406085,7.60165626 4.36268252,7.76692087 4.26353163,8.06437354 L3.4703245,10.7084498 C3.40421078,10.9067516 3.43728733,11.1380905 3.56947539,11.3033552 C3.70170283,11.4685804 3.90000462,11.56781 4.0983064,11.56781 L4.0983064,11.56781 Z" id="Fill-12"></path>
                    <path d="M14.2118115,5.61864238 L19.1694348,5.61864238 L19.1694348,0.661019066 L14.2118115,0.661019066 L14.2118115,5.61864238 Z M15.8643395,17.8473967 L17.1863776,17.8473967 L17.1863776,17.1863776 L15.8643395,17.1863776 L15.8643395,17.8473967 Z M18.1778865,19.1694348 L14.8728306,19.1694348 L14.8728306,18.5084157 L15.5338496,18.5084157 L17.5169068,18.5084157 L18.1779259,18.5084157 L18.1779259,19.1694348 L18.1778865,19.1694348 Z M19.4999246,0 L13.8813216,0 C13.6830199,0 13.5508318,0.132188063 13.5508318,0.330489845 L13.5508318,5.94913222 C13.5508318,6.147434 13.6830199,6.27962206 13.8813216,6.27962206 L16.1948687,6.27962206 L16.1948687,16.5253585 L15.5338496,16.5253585 C15.3355478,16.5253585 15.2033598,16.6575466 15.2033598,16.8558484 L15.2033598,17.8473573 L14.5423407,17.8473573 C14.3440389,17.8473573 14.2118509,17.9795453 14.2118509,18.1778471 L14.2118509,19.4998853 C14.2118509,19.698187 14.3440389,19.8303751 14.5423407,19.8303751 L18.5084157,19.8303751 C18.7067175,19.8303751 18.8389056,19.698187 18.8389056,19.4998853 L18.8389056,18.1778471 C18.8389056,17.9795453 18.7067175,17.8473573 18.5084157,17.8473573 L17.8473967,17.8473573 L17.8473967,16.8558484 C17.8473967,16.6575466 17.7152086,16.5253585 17.5169462,16.5253585 L16.8558877,16.5253585 L16.8558877,6.27962206 L19.499964,6.27962206 C19.6982658,6.27962206 19.8304539,6.147434 19.8304539,5.94913222 L19.8304539,0.330489845 C19.8304539,0.132188063 19.6982264,0 19.4999246,0 L19.4999246,0 Z" id="Fill-14"></path>
                    <path d="M17.5168517,2.64407627 C17.5168517,3.00764266 17.219399,3.30509533 16.855872,3.30509533 L16.5253428,3.30509533 L16.5253428,1.9830572 L16.855872,1.9830572 C17.219399,1.9830572 17.5168517,2.28050987 17.5168517,2.64407627 M16.1948923,4.95762331 C16.3931941,4.95762331 16.5253428,4.82543525 16.5253428,4.62713346 L16.5253428,3.96607502 L16.855872,3.96607502 C17.5830048,3.96607502 18.1778708,3.37116967 18.1778708,2.64403689 C18.1778708,1.9169041 17.5830048,1.32199876 16.855872,1.32199876 L16.1948529,1.32199876 C15.9965511,1.32199876 15.8643237,1.45418682 15.8643237,1.6524886 L15.8643237,3.6355458 L15.8643237,4.62705471 C15.8643237,4.82539587 15.9965905,4.95762331 16.1948923,4.95762331" id="Fill-16"></path>
                </g>
            </g>
            <g id="service/goods-lift" transform="translate(153.000000, 382.000000)" fill="#FFFFFF">
                <g id="Page-1" transform="translate(0.829237, 0.487712)">
                    <g id="Group-3">
                        <path d="M11.4556046,8.1136544 L13.8362096,4.40545918 L16.5125898,4.40545918 L16.5125898,12.8501431 L11.4556046,12.8501431 L11.4556046,8.1136544 Z M3.01095592,16.5196012 L16.5478053,16.5196012 L16.5478053,13.7692684 L3.01095592,13.7692684 L3.01095592,16.5196012 Z M2.67637318,0.880384708 L6.24722784,10.8675088 L5.16963264,10.8675088 L1.82415737,1.17619515 L2.67637318,0.880384708 Z M5.31753786,13.0332638 L8.21929747,13.0332638 L8.21929747,11.5648115 L5.31753786,11.5648115 L5.31753786,13.0332638 Z M13.4241527,3.7081917 L10.7477725,7.93053365 L10.7477725,13.0332638 L8.92712961,13.0332638 L8.92712961,10.8675088 L7.03957724,10.8675088 L3.1236104,-3.52155291e-06 L0.890945845,0.697263956 L1.00363554,1.01772527 L1.00363554,5.83520967 C0.447230178,6.02185197 -7.04310605e-06,6.57121423 -7.04310605e-06,7.23326617 C-7.04310605e-06,8.00448626 0.633872482,8.66653821 1.37692015,8.66653821 C2.11996781,8.66653821 2.75384734,8.00448626 2.75384734,7.23326617 L2.00727812,7.23326617 C2.00727812,7.63824476 1.71146768,7.96927073 1.3733986,7.96927073 C1.03885107,7.96927073 0.73951907,7.63824476 0.73951907,7.23326617 C0.73951907,6.82828759 1.00011399,6.49726161 1.3733986,6.49726161 L1.7466832,6.49726161 L1.7466832,3.15882945 L4.5744902,11.2936167 L4.5744902,13.0297423 L2.26787304,13.0297423 L2.26787304,17.2556058 L17.2556023,17.2556058 L17.2556023,3.7081917 L13.4241527,3.7081917 Z" id="Fill-1"></path>
                    </g>
                    <path d="M15.2483241,5.69083304 L15.2483241,7.74741994 L13.3502071,7.74741994 L13.3502071,7.45513105 L14.5017549,5.69435459 L15.2483241,5.69435459 L15.2483241,5.69083304 Z M12.6071595,7.23327322 L12.6071595,8.47990295 L15.9526347,8.47990295 L15.9526347,4.99356556 L14.0932548,4.99356556 L12.6071595,7.23327322 Z" id="Fill-4"></path>
                </g>
            </g>
            <g id="air-conditioned" transform="translate(92.000000, 384.000000)" fill="#FFFFFF">
                <g id="Page-1">
                    <path d="M20.2099982,8.05580196 C20.2099982,8.26486792 20.0706348,8.4042729 19.8615273,8.4042729 L1.04534223,8.4042729 C0.836276276,8.4042729 0.696912811,8.26486792 0.696912811,8.05580196 L0.696912811,1.08683991 C0.696912811,0.877773959 0.871148278,0.738410493 1.04534223,0.738410493 L19.8614858,0.738410493 C20.0705933,0.738410493 20.2099567,0.877773959 20.2099567,1.08683991 L20.2099567,8.05580196 L20.2099982,8.05580196 Z M19.8614858,0.0415101368 L1.04534223,0.0415101368 C0.452974853,0.0415101368 1.24542862e-05,0.494472536 1.24542862e-05,1.08683991 L1.24542862e-05,8.05580196 C1.24542862e-05,8.64821086 0.452974853,9.10113174 1.04534223,9.10113174 L19.8614858,9.10113174 C20.4538947,9.10113174 20.9068571,8.64821086 20.9068571,8.05580196 L20.9068571,1.08683991 C20.9068986,0.494472536 20.4538947,0.0415101368 19.8614858,0.0415101368 L19.8614858,0.0415101368 Z" id="Fill-1"></path>
                    <path d="M9.0596216,3.17754513 L11.847223,3.17754513 C12.056289,3.17754513 12.1956524,3.03818167 12.1956524,2.82911571 C12.1956524,2.62004976 12.056289,2.48068629 11.847223,2.48068629 L9.0596216,2.48068629 C8.85055565,2.48068629 8.71119218,2.62004976 8.71119218,2.82911571 C8.71119218,3.03818167 8.85055565,3.17754513 9.0596216,3.17754513" id="Fill-4"></path>
                    <path d="M19.164602,7.01048464 L1.74221768,7.01048464 C1.53315172,7.01048464 1.39382977,7.14984811 1.39382977,7.35891406 C1.39382977,7.56798002 1.53315172,7.70734348 1.74221768,7.70734348 L19.164602,7.70734348 C19.373668,7.70734348 19.513073,7.56798002 19.513073,7.35891406 C19.513073,7.14984811 19.373668,7.01048464 19.164602,7.01048464" id="Fill-6"></path>
                    <path d="M19.164602,5.61667562 L1.74221768,5.61667562 C1.53315172,5.61667562 1.39382977,5.75603909 1.39382977,5.96510505 C1.39382977,6.174171 1.53315172,6.31353447 1.74221768,6.31353447 L19.164602,6.31353447 C19.373668,6.31353447 19.513073,6.174171 19.513073,5.96510505 C19.513073,5.75603909 19.373668,5.61667562 19.164602,5.61667562" id="Fill-8"></path>
                    <path d="M10.6276578,11.5751508 C10.2792284,11.4009154 10.1049929,11.1918494 10.1049929,11.0175724 C10.1049929,10.8433785 10.3140589,10.6343125 10.5928273,10.4252466 C10.7670628,10.3555441 10.8018933,10.1464781 10.7321908,9.97228417 C10.6624883,9.79800719 10.4534223,9.72838773 10.2792284,9.8329207 C9.72169147,10.1465196 9.40809254,10.5646515 9.40809254,11.0176139 C9.40809254,11.4705763 9.72169147,11.8887913 10.2792284,12.2372207 C10.6276578,12.4114562 10.8018933,12.6205221 10.8018933,12.7947576 C10.8018933,12.9689931 10.5928273,13.1780175 10.2792284,13.352253 C10.1049929,13.4219139 10.0353319,13.6309799 10.1398649,13.8052154 C10.2095674,13.9097068 10.3141004,13.9794508 10.4534638,13.9794508 C10.5231663,13.9794508 10.5579968,13.9794508 10.6276993,13.9446204 C11.1852362,13.6309799 11.4988351,13.2128895 11.4988351,12.7598856 C11.4988351,12.3068817 11.1851947,11.8539193 10.6276578,11.5751508" id="Fill-10"></path>
                    <path d="M6.79472243,12.2720553 C6.44629301,12.0978199 6.27205754,11.8887539 6.27205754,11.7144769 C6.27205754,11.540283 6.4811235,11.331217 6.75989194,11.1221511 C6.93412741,11.0524486 7.00378839,10.8433826 6.89925541,10.6691887 C6.82955292,10.4949117 6.62048696,10.4252922 6.44629301,10.5297837 C5.88875612,10.8434241 5.57515718,11.2615145 5.57515718,11.7145185 C5.57515718,12.1674809 5.88875612,12.5856958 6.44629301,12.9340837 C6.79472243,13.1083607 6.9689579,13.3174266 6.9689579,13.4916621 C6.9689579,13.6658561 6.75989194,13.874922 6.44629301,14.049199 C6.27205754,14.11886 6.20239657,14.3279259 6.30692954,14.5021614 C6.37663203,14.6066529 6.48116501,14.6763969 6.62052848,14.6763969 C6.69023097,14.6763969 6.72506145,14.6763969 6.79476394,14.6415249 C7.35230083,14.3279259 7.66589977,13.909794 7.66589977,13.4568316 C7.66589977,13.0038277 7.35225932,12.5508238 6.79472243,12.2720553" id="Fill-12"></path>
                    <path d="M14.4605931,12.2720553 C14.1121222,12.0978199 13.9379282,11.8887539 13.9379282,11.7144769 C13.9379282,11.540283 14.1469942,11.331217 14.4257626,11.1221511 C14.5999566,11.0524486 14.6348286,10.8433826 14.5651261,10.6691887 C14.4954236,10.4949117 14.2863577,10.4252922 14.1121222,10.5297837 C13.5546268,10.8434241 13.2410279,11.2615145 13.2410279,11.7145185 C13.2410279,12.1674809 13.5546268,12.5856958 14.1121222,12.9340837 C14.4605931,13.1083607 14.6348286,13.3174266 14.6348286,13.4916621 C14.6348286,13.6658561 14.4257626,13.874922 14.1121222,14.049199 C13.9379282,14.11886 13.8682258,14.3279259 13.9728003,14.5021614 C14.0425027,14.6066529 14.1470357,14.6763969 14.2863992,14.6763969 C14.3560602,14.6763969 14.3909322,14.6763969 14.4606347,14.6415249 C15.0181715,14.3279259 15.331729,13.909794 15.331729,13.4568316 C15.331729,13.0038277 15.0180885,12.5508238 14.4605931,12.2720553" id="Fill-15"></path>
                </g>
            </g>
            <g id="maintanance-staff" transform="translate(46.000000, 380.000000)" fill="#FFFFFF">
                <g id="Page-1">
                    <path d="M9.16233921,13.0338225 L7.49347912,12.1407506 L6.77890304,12.1407506 L6.77890304,12.5141846 C6.77890304,12.6371407 6.72868271,12.7539569 6.64144507,12.8337236 L6.19039123,13.2462538 L6.57587013,19.2932501 L9.16233921,17.968441 L9.16233921,13.0338225 Z M5.99655152,11.9148849 L5.5788475,11.5327921 L4.36583345,11.5327921 L3.94812943,11.9148849 L3.94812943,12.320383 L4.40989237,12.7427266 C4.41101708,12.7437237 4.41214178,12.7447733 4.41321758,12.7457703 L4.55180025,12.8725049 L5.392734,12.8725049 L5.99650262,12.320383 L5.99650262,11.9148849 L5.99655152,11.9148849 Z M5.85557275,20.2958962 L5.83508364,19.9744155 C5.83469244,19.9694826 5.83439904,19.9645496 5.83415454,19.9597216 L5.43581492,13.7121016 L4.50881713,13.7121016 L4.11067312,19.9554709 C4.11037971,19.9631852 4.10989071,19.9707945 4.10920611,19.9786138 L4.0889615,20.2958437 L4.97229158,21.0601869 L5.85557275,20.2958962 Z M3.75433862,13.2463062 L3.30323588,12.8337236 C3.21599824,12.7539569 3.16577791,12.6370882 3.16577791,12.5141846 L3.16577791,12.1407506 L2.45129963,12.1407506 L0.782341738,13.0338225 L0.782341738,17.9684935 L3.36871302,19.2932501 L3.75433862,13.2463062 Z M9.94473963,12.774056 L9.94473963,18.2333504 C9.94473963,18.3951403 9.85813768,18.5425512 9.72204891,18.6122421 L6.63332766,20.1943511 L6.65005147,20.456794 C6.65875568,20.5934994 6.60472115,20.7262164 6.50535629,20.812228 L5.25004372,21.8985767 C5.17855189,21.9604483 5.09155874,21.9915678 5.00446779,21.9915678 C4.99375869,21.9915678 4.98304958,21.9910955 4.97238938,21.9901509 C4.87478492,21.9988098 4.77502887,21.9680576 4.69473503,21.8985242 L3.43932466,20.8121755 C3.3399109,20.726164 3.28587637,20.5934469 3.29458058,20.456689 L3.31130439,20.1941937 L0.222680939,18.6121371 C0.0865921662,18.5424462 -9.78000526e-06,18.3950353 -9.78000526e-06,18.2332454 L-9.78000526e-06,12.7739511 C-9.78000526e-06,12.6147326 0.0839026648,12.4692634 0.216666236,12.398208 L2.18469669,11.3451829 C2.23887792,11.3161626 2.29868265,11.3010489 2.35922088,11.3010489 L3.41296754,11.3010489 L3.96803174,10.7934284 C4.03879008,10.728723 4.12876612,10.6931428 4.22177397,10.6931428 L5.72295588,10.6931428 C5.81596373,10.6931428 5.90593977,10.728723 5.97669811,10.7934284 L6.53181121,11.3011014 L7.58560677,11.3010489 C7.6461939,11.3010489 7.70594973,11.316215 7.76017986,11.3451829 L9.72811251,12.398208 C9.86087609,12.4693683 9.94473963,12.6148375 9.94473963,12.774056 L9.94473963,12.774056 Z M1.79334978,4.0956515 C3.38998453,5.13183113 5.66158634,4.62043227 7.03098267,3.41238694 L2.17687268,3.41238694 C2.0261628,3.6257628 1.89780023,3.85493457 1.79334978,4.0956515 L1.79334978,4.0956515 Z M2.37970999,2.57273772 L7.57118126,2.57273772 L7.57118126,0.839649229 L2.37970999,0.839649229 L2.37970999,2.57273772 Z M0.682390084,5.68568475 C0.682390084,5.15660078 0.76772063,4.6349687 0.930704417,4.14319664 C0.93652352,4.11989638 0.944249724,4.09696346 0.953980829,4.07466027 C1.10742911,3.63373947 1.32376283,3.21800815 1.59730957,2.84404937 L1.59730957,0.419824614 C1.59730957,0.187976471 1.77246947,0 1.98850978,0 L7.96238147,0 C8.17842179,0 8.35358168,0.187976471 8.35358168,0.419824614 L8.35358168,2.85239339 C8.94067539,3.65903391 9.26229087,4.65853136 9.26229087,5.68563228 C9.26229087,7.37259253 8.40218831,8.88611275 7.09381921,9.68761041 L6.95909964,10.4275513 C6.92262022,10.6279126 6.75900073,10.766927 6.57562563,10.766927 C6.55068662,10.766927 6.5255031,10.7643556 6.50017289,10.7590553 C6.28814238,10.7146064 6.1498042,10.4940935 6.19122253,10.2664961 L6.22330094,10.0903797 C6.08784787,10.1346187 5.9495097,10.1718256 5.80833532,10.2017906 C5.59635371,10.2466594 5.3906313,10.0987761 5.34872398,9.87133616 C5.30681665,9.64389617 5.44476363,9.42306843 5.65669634,9.37809472 C7.29254891,9.03116215 8.47989045,7.4782309 8.47989045,5.68568475 C8.47989045,4.96678758 8.28722435,4.264421 7.93069425,3.66344206 C7.17978545,4.49081142 6.09239557,5.11183698 4.92759695,5.36231484 C3.69839699,5.62664692 2.49472285,5.4596092 1.54102564,4.90622788 C1.49065862,5.16100894 1.4647905,5.42224481 1.4647905,5.68568475 C1.4647905,7.47828338 2.65213204,9.03116215 4.28803351,9.37809472 C4.49996622,9.42301595 4.6378643,9.6438437 4.59595697,9.87133616 C4.55404965,10.0988286 4.34798494,10.2466594 4.13634563,10.2017906 C3.99512235,10.1718256 3.85673528,10.1345662 3.72133111,10.0903797 L3.75340952,10.2665486 C3.79482785,10.4940935 3.65653857,10.7146064 3.44445916,10.7590553 C3.23252645,10.8036092 3.02695074,10.6550962 2.98553241,10.4274988 L2.85086174,9.68761041 C1.54254154,8.88611275 0.682390084,7.37264501 0.682390084,5.68568475 L0.682390084,5.68568475 Z M7.59524008,14.0984977 L8.06106172,14.0984977 C8.27710204,14.0984977 8.45226193,14.2864742 8.45226193,14.5183223 C8.45226193,14.7501705 8.27710204,14.938147 8.06106172,14.938147 L7.59524008,14.938147 C7.37919976,14.938147 7.20403987,14.7501705 7.20403987,14.5183223 C7.20403987,14.2864742 7.37919976,14.0984977 7.59524008,14.0984977 L7.59524008,14.0984977 Z" id="Fill-1"></path>
                </g>
            </g>
            <g id="ic-close" transform="translate(58.000000, 511.000000) rotate(45.000000) translate(-58.000000, -511.000000) translate(45.000000, 498.000000)" fill="#FFFFFF">
                <rect id="Rectangle-10" x="12.1213203" y="0.464466094" width="2" height="25"></rect>
                <rect id="Rectangle-10" transform="translate(13.121320, 12.964466) rotate(90.000000) translate(-13.121320, -12.964466) " x="12.1213203" y="0.464466094" width="2" height="25"></rect>
            </g>
            <g id="ic-pause" transform="translate(40.000000, 40.000000)" fill="#000000">
                <rect id="Rectangle-6" x="0" y="0" width="2" height="8"></rect>
                <rect id="Rectangle-6" x="4" y="0" width="2" height="8"></rect>
            </g>
            <g id="ic-contact" transform="translate(40.000000, 88.000000)" fill-rule="nonzero" fill="#FFFFFF">
                <path d="M19.7613165,3.19129566 L12.0007657,10.21386 L4.23852486,3.19119357 C3.9294469,2.91157322 3.45832422,2.94230186 3.18612884,3.25949076 C2.91403287,3.57678175 2.94365822,4.06057905 3.25273618,4.34019939 L11.5079708,11.8088904 C11.6488403,11.9362968 11.8249024,12 12.0008651,12 C12.1768278,12 12.3529893,11.9362968 12.4938588,11.8087883 L20.7474034,4.3400973 C21.0562825,4.06057905 21.0860073,3.57667966 20.8138119,3.25938867 C20.5414177,2.94240395 20.0703944,2.9117774 19.7613165,3.19129566 Z" id="Shape"></path>
                <path d="M21.7599031,0 L2.2400969,0 C1.00495725,0 0,1.04621285 0,2.33228863 L0,14.6677114 C0,15.9537871 1.00495725,17 2.2400969,17 L21.7599031,17 C22.9950427,17 24,15.9537871 24,14.6677114 L24,2.33228863 C24,1.04631651 22.9950427,0 21.7599031,0 Z M22.5066021,14.6677114 C22.5066021,15.0963342 22.1716827,15.4451409 21.7599031,15.4451409 L2.2400969,15.4451409 C1.82831731,15.4451409 1.49339794,15.0963342 1.49339794,14.6677114 L1.49339794,2.33228863 C1.49339794,1.90366581 1.82831731,1.55485909 2.2400969,1.55485909 L21.7599031,1.55485909 C22.1716827,1.55485909 22.5066021,1.90366581 22.5066021,2.33228863 L22.5066021,14.6677114 Z" id="Shape"></path>
            </g>
            <g id="arrow-right" transform="translate(80.000000, 145.000000)">
                <g id="Oval-2">
                    <use fill="black" fill-opacity="1" filter="url(#filter-6)" xlink:href="#path-5"></use>
                    <use fill="#FFFFFF" fill-rule="evenodd" xlink:href="#path-5"></use>
                </g>
                <polygon id="Shape" fill="#000000" points="13.1003144 23.2130435 12.2424591 22.3751382 19.3646536 15.2529437 12.1826087 8.07089884 13.0404641 7.21304348 21.0604142 15.2529437"></polygon>
            </g>
            <g id="arrow-left" transform="translate(55.000000, 160.000000) scale(-1, 1) translate(-55.000000, -160.000000) translate(40.000000, 145.000000)">
                <g id="Oval-2">
                    <use fill="black" fill-opacity="1" filter="url(#filter-8)" xlink:href="#path-7"></use>
                    <use fill="#FFFFFF" fill-rule="evenodd" xlink:href="#path-7"></use>
                </g>
                <polygon id="Shape" fill="#000000" points="13.1003144 23.2130435 12.2424591 22.3751382 19.3646536 15.2529437 12.1826087 8.07089884 13.0404641 7.21304348 21.0604142 15.2529437"></polygon>
            </g>
            <g id="ic-play" transform="translate(56.000000, 40.000000)" fill="#000000">
                <polygon id="Rectangle-6" points="0 0 5 4 0 8"></polygon>
            </g>
        </g>
    </g>
</svg>